<svg width="153" height="38" viewBox="0 0 153 38" fill="none" xmlns="http://www.w3.org/2000/svg">
<path d="M98.3242 8.98975C99.731 8.9898 101.051 9.24495 102.283 9.75537C103.528 10.2534 104.612 10.9629 105.533 11.8843C106.467 12.8057 107.201 13.9207 107.736 15.228C108.272 16.5229 108.54 17.9612 108.54 19.5425C108.54 21.1858 108.272 22.6671 107.736 23.9868C107.201 25.2942 106.467 26.4092 105.533 27.3306C104.612 28.2395 103.528 28.9368 102.283 29.4224C101.051 29.9079 99.731 30.1508 98.3242 30.1509C97.8761 30.1509 97.4275 30.101 96.9795 30.0015C96.5437 29.9019 96.1076 29.7707 95.6718 29.6089C95.2485 29.4346 94.8247 29.2415 94.4013 29.0298C93.8638 28.7531 93.206 29.1342 93.206 29.7388V34.7729C93.206 36.1911 92.0568 37.3411 90.6386 37.3413C89.2203 37.3413 88.0703 36.1912 88.0703 34.7729V10.9995C88.0703 10.2568 88.5991 9.61904 89.3291 9.48193C90.0715 9.34253 90.7922 9.81127 90.9658 10.5464L90.9824 10.6167C91.1404 11.287 91.9744 11.5422 92.5263 11.1304C92.6328 11.0509 92.7415 10.9725 92.8515 10.895C93.3993 10.5091 93.9656 10.1787 94.5508 9.90479C95.1484 9.61841 95.7654 9.39478 96.4004 9.23291C97.0353 9.07109 97.6768 8.98975 98.3242 8.98975ZM144.77 8.95264C145.605 8.95267 146.42 9.05838 147.217 9.27002C148.026 9.48166 148.792 9.79283 149.514 10.2036C150.248 10.602 150.921 11.094 151.531 11.6792C151.738 11.8734 151.935 12.0772 152.122 12.2905C152.797 13.0589 152.634 14.2023 151.913 14.9272L150.533 16.314C150.008 16.8413 149.096 16.6337 148.636 16.0493C148.312 15.6262 147.945 15.2712 147.534 14.9849C147.136 14.6985 146.7 14.4809 146.227 14.3315C145.754 14.1822 145.268 14.107 144.77 14.1069C144.073 14.1069 143.413 14.2502 142.79 14.5366C142.18 14.8229 141.645 15.2278 141.185 15.7505C140.736 16.261 140.381 16.8718 140.119 17.5815C139.858 18.291 139.728 19.0753 139.728 19.9341C139.728 20.6312 139.858 21.2851 140.119 21.895C140.381 22.5051 140.736 23.0408 141.185 23.5015C141.645 23.962 142.18 24.323 142.79 24.5845C143.413 24.8459 144.073 24.9771 144.77 24.9771C145.268 24.977 145.747 24.9088 146.208 24.772C146.669 24.635 147.099 24.4419 147.497 24.1929C147.908 23.9315 148.269 23.6202 148.58 23.2593C149.042 22.7258 149.901 22.5655 150.399 23.0659L151.736 24.4097C152.525 25.202 152.65 26.4706 151.842 27.2427C151.717 27.362 151.588 27.4781 151.456 27.5913C150.846 28.1267 150.18 28.582 149.458 28.9556C148.748 29.329 147.995 29.6087 147.198 29.7954C146.414 29.9946 145.605 30.0942 144.77 30.0942C143.364 30.0942 142.037 29.833 140.792 29.3101C139.559 28.7747 138.476 28.0459 137.542 27.1245C136.621 26.2033 135.893 25.1264 135.357 23.894C134.822 22.6614 134.554 21.3411 134.554 19.9341C134.554 18.4028 134.822 16.9713 135.357 15.6392C135.893 14.3069 136.621 13.1482 137.542 12.1646C138.476 11.1685 139.559 10.3848 140.792 9.81201C142.037 9.23926 143.364 8.95264 144.77 8.95264ZM62.1845 2.93896C63.6646 2.9391 64.8642 4.13855 64.8642 5.61865V27.0405C64.8642 28.5206 63.6646 29.7211 62.1845 29.7212C60.7044 29.7212 59.5039 28.5207 59.5039 27.0405V24.3696C59.5036 21.4146 57.1084 19.019 54.1533 19.019C51.1982 19.0191 48.8029 21.4146 48.8027 24.3696V27.0405C48.8027 28.5207 47.6022 29.7212 46.122 29.7212C44.642 29.721 43.4424 28.5206 43.4424 27.0405V5.61865C43.4424 4.13857 44.642 2.93912 46.122 2.93896C47.6022 2.93896 48.8027 4.13847 48.8027 5.61865V8.30811C48.8027 11.2633 51.1981 13.6587 54.1533 13.6587C57.1085 13.6587 59.5039 11.2633 59.5039 8.30811V5.61865C59.5039 4.13847 60.7044 2.93896 62.1845 2.93896ZM113.468 1.76221C114.871 1.76221 116.008 2.89943 116.008 4.30225V5.88916C116.008 8.02431 117.739 9.75534 119.874 9.75537H121.2C122.603 9.75541 123.74 10.8927 123.74 12.2954C123.74 13.6982 122.603 14.8354 121.2 14.8354H119.874C117.739 14.8355 116.008 16.5665 116.008 18.7017V20.7749C116.008 21.3102 116.107 21.8145 116.307 22.2876C116.506 22.7483 116.78 23.1528 117.129 23.5015C117.477 23.8501 117.888 24.1306 118.361 24.3423C118.834 24.5415 119.339 24.6411 119.874 24.6411H121.2C122.603 24.6411 123.74 25.7784 123.74 27.1812C123.74 28.5838 122.603 29.7212 121.2 29.7212H119.874C118.641 29.7212 117.484 29.4904 116.4 29.0298C115.317 28.5566 114.365 27.9153 113.543 27.106C112.734 26.2842 112.092 25.3318 111.619 24.2485C111.158 23.1653 110.928 22.0075 110.928 20.7749V4.30225C110.928 2.89949 112.065 1.76232 113.468 1.76221ZM129.185 9.71826C130.603 9.71834 131.753 10.8684 131.753 12.2866V27.1528C131.753 28.5711 130.603 29.7211 129.185 29.7212C127.766 29.7212 126.616 28.5711 126.616 27.1528V12.2866C126.616 10.8683 127.766 9.71826 129.185 9.71826ZM76.4033 9.46924C78.3411 9.46925 79.9477 9.83823 81.2226 10.5776C82.5231 11.3171 83.4798 12.3629 84.0918 13.7144C84.7293 15.0403 85.0352 16.6215 85.0097 18.4575V27.061C85.0097 28.5131 83.6708 29.5954 82.2509 29.2915L81.6172 29.1567C81.3123 29.0914 81.0559 28.8854 80.9258 28.6021C80.5878 27.8673 79.4977 27.8082 78.8603 28.3062C78.6116 28.5005 78.3404 28.6723 78.0478 28.8228C77.1808 29.2818 76.1099 29.5112 74.8349 29.5112C72.5402 29.5112 70.7554 29.0017 69.4804 27.9819C68.231 26.962 67.6055 25.5211 67.6054 23.6597C67.6054 21.6198 68.2815 20.0898 69.6328 19.0698C71.0098 18.0243 72.9357 17.5015 75.4091 17.5015L77.2041 17.5747C79.0267 17.6495 80.0458 16.1684 78.8134 14.8237C78.2525 14.1862 77.4488 13.8677 76.4033 13.8677C75.5873 13.8677 74.8475 14.0458 74.1845 14.4028C74.0704 14.4643 73.9597 14.5322 73.8515 14.605C72.8859 15.2554 71.7208 15.7783 70.6201 15.3989C69.2435 14.9242 68.572 13.3558 69.5312 12.2603C69.5646 12.2221 69.5986 12.184 69.6328 12.146C70.3213 11.3555 71.214 10.7184 72.3105 10.2339C73.4325 9.72389 74.7968 9.46924 76.4033 9.46924ZM77.1679 21.2495C75.5106 21.2495 74.363 21.4538 73.7256 21.8618C73.0882 22.2443 72.7695 22.7925 72.7695 23.5063C72.7695 24.0673 73.0243 24.5137 73.5341 24.8452C74.0441 25.1512 74.7587 25.3042 75.6767 25.3042C76.4926 25.3042 77.2316 25.1124 77.8945 24.73C78.5574 24.3475 79.0804 23.8507 79.4629 23.2388C79.8453 22.6269 80.037 21.9895 80.0371 21.3267C80.0371 21.2846 80.003 21.2498 79.9609 21.2495H77.1679ZM98.3242 14.1069C97.6269 14.1069 96.9663 14.2319 96.3437 14.481C95.7338 14.7299 95.1988 15.091 94.7383 15.564C94.2776 16.0246 93.9096 16.5909 93.6357 17.2632C93.3742 17.9355 93.2441 18.6958 93.2441 19.5425C93.2441 20.3517 93.3743 21.0929 93.6357 21.7651C93.9096 22.4373 94.2776 23.0099 94.7383 23.4829C95.1988 23.9559 95.7339 24.3231 96.3437 24.5845C96.9663 24.8459 97.6269 24.9771 98.3242 24.9771C99.0213 24.977 99.6813 24.8459 100.304 24.5845C100.926 24.323 101.468 23.956 101.929 23.4829C102.389 23.0099 102.75 22.4372 103.012 21.7651C103.286 21.0929 103.423 20.3517 103.423 19.5425C103.423 18.6958 103.286 17.9355 103.012 17.2632C102.75 16.591 102.389 16.0246 101.929 15.564C101.468 15.0909 100.926 14.73 100.304 14.481C99.6813 14.232 99.0213 14.107 98.3242 14.1069ZM129.193 0.884277C129.666 0.884277 130.109 0.977818 130.52 1.16455C130.943 1.33887 131.311 1.58179 131.622 1.89307C131.933 2.19182 132.176 2.55291 132.351 2.97607C132.537 3.38687 132.63 3.82312 132.63 4.28369C132.63 4.75647 132.537 5.19827 132.351 5.60889C132.176 6.01977 131.933 6.3816 131.622 6.69287C131.311 6.9917 130.943 7.23462 130.52 7.42139C130.109 7.59559 129.666 7.68213 129.193 7.68213C128.72 7.68208 128.272 7.59565 127.849 7.42139C127.438 7.23464 127.077 6.99162 126.766 6.69287C126.467 6.38159 126.224 6.01977 126.037 5.60889C125.863 5.19825 125.776 4.7565 125.776 4.28369C125.776 3.82309 125.863 3.38689 126.037 2.97607C126.224 2.55287 126.467 2.19184 126.766 1.89307C127.077 1.5819 127.438 1.33885 127.849 1.16455C128.272 0.977837 128.72 0.88433 129.193 0.884277Z" fill="#4F3AAA"/>
<path d="M8.45005 6.70782C6.45426 5.54145 4.49206 5.48441 2.53071 6.70782C0.773729 7.80376 0.557718 9.24094 0.557681 11.3117L0.557689 22.4926C0.557682 24.6106 0.370293 25.6039 1.87306 27.0965C2.64816 27.8663 3.94518 28.1023 5.18354 28.1185C7.29444 28.1461 8.93038 26.6161 10.4231 25.1234C11.3312 24.2153 11.8703 23.6486 13.0539 23.1503C13.2047 23.0868 13.3648 23.0335 13.5318 22.989C16.432 22.2166 18.3404 25.6074 20.9463 27.0965C22.7304 28.1159 24.4239 28.1159 26.2079 27.0965C27.816 26.1776 28.8387 23.687 28.8387 21.8349V14.6002C28.8387 11.8339 28.181 9.08973 26.2079 8.02322C24.4003 7.04614 22.6561 6.88342 20.9464 8.02321C18.9733 9.33861 18.533 11.0234 16.3424 11.3117C14.4885 11.5557 13.2737 11.0639 11.7385 9.99632C10.3883 9.05737 9.86997 7.53765 8.45005 6.70782Z" stroke="#4F3AAA" stroke-width="1.0998"/>
<path d="M13.7117 1.4461C11.7159 0.279729 9.75372 0.222688 7.79237 1.4461C6.03539 2.54204 5.81938 3.97922 5.81934 6.04999L5.81935 17.2309C5.81934 19.3489 5.63195 20.3422 7.13472 21.8348C7.90981 22.6046 9.20684 22.8406 10.4452 22.8568C12.5561 22.8843 14.192 21.3544 15.6848 19.8617C16.5929 18.9536 17.132 18.3869 18.3156 17.8886C18.4663 17.8251 18.6264 17.7717 18.7934 17.7273C21.6937 16.9549 23.6021 20.3457 26.208 21.8348C27.992 22.8542 29.6855 22.8542 31.4696 21.8348C33.0777 20.9158 34.1004 18.4253 34.1004 16.5732V9.33848C34.1004 6.57215 33.4426 3.82801 31.4696 2.7615C29.662 1.78442 27.9177 1.6217 26.208 2.76149C24.2349 4.07689 23.7947 5.76169 21.6041 6.04999C19.7502 6.29398 18.5354 5.80215 17.0002 4.7346C15.65 3.79565 15.1316 2.27593 13.7117 1.4461Z" stroke="#4F3AAA" stroke-width="1.0998"/>
</svg>
