<svg width="120" height="99" viewBox="0 0 120 99" fill="none" xmlns="http://www.w3.org/2000/svg">
<path d="M29.1462 23.1367C22.2621 19.1136 15.4939 18.9168 8.72871 23.1367C2.66837 26.917 1.92328 31.8742 1.92315 39.0169C1.92287 54.897 1.92323 63.9713 1.92318 77.5829C1.92316 84.8885 1.2768 88.3148 6.46027 93.463C9.13379 96.1184 13.6076 96.9325 17.879 96.9882C25.1602 97.0833 30.803 91.8062 35.9519 86.6572C39.0842 83.525 40.9437 81.5705 45.0263 79.8515C45.5463 79.6325 46.0985 79.4485 46.6745 79.2951C56.6782 76.6311 63.2609 88.3268 72.2494 93.463C78.403 96.9794 84.2444 96.9794 90.3981 93.463C95.9449 90.2934 99.4724 81.7029 99.4724 75.3143V50.3598C99.4724 40.8179 97.2037 31.3526 90.3981 27.6739C84.1631 24.3037 78.1467 23.7424 72.2496 27.6739C65.4438 32.2111 63.9252 38.0224 56.3692 39.0169C49.9746 39.8585 45.7844 38.162 40.4891 34.4797C35.8317 31.241 34.0439 25.9991 29.1462 23.1367Z" stroke="#4F3AAA" stroke-width="3.79352"/>
<path d="M47.2946 4.98831C40.4105 0.965161 33.6424 0.768411 26.8771 4.98831C20.8168 8.76852 20.0717 13.7258 20.0716 20.8684C20.0713 36.7485 20.0717 45.8229 20.0716 59.4344C20.0716 66.7401 19.4252 70.1664 24.6087 75.3146C27.2822 77.9699 31.756 78.784 36.0275 78.8398C43.3086 78.9349 48.9514 73.6578 54.1004 68.5088C57.2326 65.3765 59.0922 63.422 63.1747 61.703C63.6947 61.4841 64.2469 61.3 64.8229 61.1466C74.8267 58.4826 81.4094 70.1783 90.3978 75.3146C96.5515 78.831 102.393 78.831 108.547 75.3146C114.093 72.1449 117.621 63.5544 117.621 57.1658V32.2113C117.621 22.6695 115.352 13.2042 108.547 9.52549C102.312 6.15526 96.2952 5.59401 90.398 9.52545C83.5922 14.0626 82.0737 19.874 74.5177 20.8684C68.1231 21.71 63.9328 20.0135 58.6376 16.3313C53.9802 13.0926 52.1923 7.85061 47.2946 4.98831Z" stroke="#4F3AAA" stroke-width="3.79352"/>
</svg>
