<svg width="120" height="99" viewBox="0 0 120 99" fill="none" xmlns="http://www.w3.org/2000/svg">
<path d="M29.1466 23.1367C22.2625 19.1136 15.4944 18.9168 8.72912 23.1367C2.66878 26.917 1.9237 31.8742 1.92357 39.0169C1.92328 54.897 1.92364 63.9713 1.9236 77.5829C1.92357 84.8885 1.27721 88.3148 6.46068 93.463C9.13421 96.1184 13.608 96.9325 17.8795 96.9882C25.1606 97.0833 30.8034 91.8062 35.9523 86.6572C39.0846 83.525 40.9441 81.5705 45.0267 79.8515C45.5467 79.6325 46.0989 79.4485 46.6749 79.2951C56.6786 76.6311 63.2614 88.3268 72.2498 93.463C78.4035 96.9794 84.2448 96.9794 90.3985 93.463C95.9453 90.2934 99.4728 81.7029 99.4728 75.3143V50.3598C99.4728 40.8179 97.2041 31.3526 90.3985 27.6739C84.1636 24.3037 78.1471 23.7424 72.25 27.6739C65.4442 32.2111 63.9256 38.0224 56.3696 39.0169C49.9751 39.8585 45.7848 38.162 40.4895 34.4797C35.8321 31.241 34.0443 25.9991 29.1466 23.1367Z" stroke="#E8E8E8" stroke-width="3.79352"/>
<path d="M47.295 4.98831C40.411 0.965161 33.6428 0.768411 26.8776 4.98831C20.8172 8.76852 20.0721 13.7258 20.072 20.8684C20.0717 36.7485 20.0721 45.8229 20.072 59.4344C20.072 66.7401 19.4257 70.1664 24.6091 75.3146C27.2826 77.9699 31.7565 78.784 36.0279 78.8398C43.309 78.9349 48.9518 73.6578 54.1008 68.5088C57.233 65.3765 59.0926 63.422 63.1751 61.703C63.6951 61.4841 64.2473 61.3 64.8233 61.1466C74.8271 58.4826 81.4098 70.1783 90.3982 75.3146C96.5519 78.831 102.393 78.831 108.547 75.3146C114.094 72.1449 117.621 63.5544 117.621 57.1658V32.2113C117.621 22.6695 115.353 13.2042 108.547 9.52549C102.312 6.15526 96.2956 5.59401 90.3984 9.52545C83.5927 14.0626 82.0741 19.874 74.5181 20.8684C68.1235 21.71 63.9332 20.0135 58.638 16.3313C53.9806 13.0926 52.1927 7.85061 47.295 4.98831Z" stroke="#E8E8E8" stroke-width="3.79352"/>
</svg>
